<?xml version="1.0" encoding="utf-8"?>
<!-- Generator: Adobe Illustrator 16.0.0, SVG Export Plug-In . SVG Version: 6.00 Build 0)  -->
<!DOCTYPE svg PUBLIC "-//W3C//DTD SVG 1.1//EN" "http://www.w3.org/Graphics/SVG/1.1/DTD/svg11.dtd">
<svg version="1.1" id="Layer_1" xmlns="http://www.w3.org/2000/svg" xmlns:xlink="http://www.w3.org/1999/xlink" x="0px" y="0px"
	 width="60.945px" height="36px" viewBox="40.393 0 60.945 36" enable-background="new 40.393 0 60.945 36" xml:space="preserve">
<path fill="#FF0033" d="M44.182,10.758c1.688,1.361,3.566,2.544,5.51,3.444c0.142,0.033,0.179,0.19,0.075,0.315
	c-1.476,2.181-2.634,4.584-3.312,7.176c-0.746,2.871-1.119,6.055-2.98,8.295c-0.104,0.123,0.004,0.297,0.146,0.33
	c1.6,0.15,3.231,0.162,4.769-0.37c0.559-0.167,1.08-0.49,1.693-0.57c1.015-0.208,1.968,0.164,2.868,0.447
	c0.97,0.302,1.993,0.69,2.963,0.991c1.376,0.471,2.807,1.028,3.839,2.014c0.125,0.104,0.353,0.081,0.386-0.061
	c1.412-4.127,0.884-8.857,2.577-12.92c0.219-0.617,0.578-1.203,0.993-1.7c0.636-0.817,1.559-1.271,2.429-1.81
	c2.592-1.548,5.055-3.499,7.126-5.689c0.326-0.444,0.707-0.801,0.895-1.278c0.031-0.141-0.074-0.314-0.25-0.206
	c-0.611,0.079-1.262,0.001-1.881-0.218c-0.211-0.049-0.318-0.223-0.27-0.435c0.111-0.791,0.941-1.489,1.477-2.181
	c0.756-1.012,1.016-2.438,0.543-3.589C73.667,2.57,73.63,2.413,73.489,2.38c-0.141-0.033-0.299,0.005-0.387,0.059
	c-1.747,0.483-3.113,1.873-4.843,2.285c-1.646,0.358-3.53-0.157-4.867,0.793c-0.277,0.232-0.482,0.481-0.799,0.556
	c-0.489,0.183-1.036-0.021-1.513-0.205c-2.895-0.974-6.27-0.204-8.467,1.883c-0.381,0.357-0.777,0.784-1.213,1.054
	c-0.435,0.27-0.978,0.366-1.52,0.462c-1.401,0.267-2.871,0.518-4.271,0.784c-0.456,0.042-0.928,0.154-1.347,0.354
	C44.107,10.444,44.128,10.672,44.182,10.758z M55.122,8.785c0.79-1.153,2.186-1.718,3.553-1.844
	c0.298-0.004,0.597-0.009,0.846,0.197c0.248,0.208,0.308,0.593,0.101,0.841c-0.086,0.054-0.19,0.178-0.276,0.232
	c-0.469,0.411-1.114,0.631-1.69,0.869c-0.559,0.166-1.135,0.403-1.746,0.483c-0.142-0.034-0.37-0.012-0.511-0.045
	c-0.211-0.049-0.318-0.223-0.355-0.381C55.072,8.997,55.105,8.855,55.122,8.785z"/>
<path fill="#FF0033" d="M69.421,11.758c1.688,1.361,3.566,2.544,5.511,3.444c0.141,0.033,0.178,0.19,0.074,0.315
	c-1.477,2.182-2.633,4.584-3.312,7.176c-0.747,2.871-1.119,6.055-2.98,8.295c-0.104,0.123,0.004,0.297,0.145,0.33
	c1.601,0.15,3.232,0.162,4.769-0.37c0.559-0.167,1.08-0.49,1.693-0.57c1.016-0.208,1.969,0.164,2.867,0.447
	c0.971,0.302,1.994,0.69,2.963,0.991c1.377,0.471,2.809,1.028,3.84,2.014c0.125,0.104,0.354,0.081,0.387-0.061
	c1.412-4.127,0.883-8.857,2.576-12.92c0.219-0.617,0.578-1.203,0.992-1.699c0.637-0.817,1.561-1.271,2.43-1.812
	c2.592-1.548,5.055-3.499,7.127-5.688c0.326-0.444,0.707-0.801,0.895-1.278c0.031-0.141-0.076-0.314-0.25-0.206
	c-0.611,0.079-1.262,0.001-1.881-0.218c-0.211-0.049-0.318-0.223-0.27-0.435c0.111-0.791,0.941-1.489,1.477-2.181
	c0.756-1.012,1.016-2.438,0.543-3.589C98.907,3.57,98.87,3.413,98.729,3.38c-0.141-0.033-0.299,0.005-0.387,0.059
	c-1.746,0.483-3.113,1.873-4.844,2.285c-1.645,0.358-3.529-0.157-4.867,0.793c-0.277,0.232-0.482,0.481-0.799,0.556
	c-0.488,0.183-1.035-0.021-1.514-0.205c-2.893-0.974-6.268-0.204-8.465,1.883c-0.381,0.357-0.777,0.784-1.213,1.054
	s-0.979,0.366-1.52,0.462c-1.402,0.267-2.871,0.518-4.272,0.784c-0.455,0.042-0.928,0.154-1.347,0.354
	C69.346,11.444,69.368,11.672,69.421,11.758z M80.36,9.785c0.791-1.153,2.188-1.718,3.555-1.844
	c0.297-0.004,0.596-0.009,0.846,0.197c0.248,0.208,0.307,0.593,0.1,0.841c-0.086,0.054-0.189,0.178-0.275,0.232
	c-0.471,0.411-1.115,0.631-1.691,0.869c-0.559,0.166-1.135,0.403-1.746,0.483c-0.141-0.034-0.371-0.012-0.51-0.045
	c-0.211-0.049-0.32-0.223-0.357-0.381C80.311,9.997,80.344,9.855,80.36,9.785z"/>
</svg>
