<?xml version="1.0" encoding="utf-8"?>
<!-- Generator: Adobe Illustrator 16.0.0, SVG Export Plug-In . SVG Version: 6.00 Build 0)  -->
<!DOCTYPE svg PUBLIC "-//W3C//DTD SVG 1.1//EN" "http://www.w3.org/Graphics/SVG/1.1/DTD/svg11.dtd">
<svg version="1.1" id="Layer_1" xmlns="http://www.w3.org/2000/svg" xmlns:xlink="http://www.w3.org/1999/xlink" x="0px" y="0px"
	 width="104.882px" height="36px" viewBox="18.425 0 104.882 36" enable-background="new 18.425 0 104.882 36" xml:space="preserve"
	>
<g>
	<g>
		<path fill="#FF0033" d="M44.781,10.673c1.688,1.361,3.566,2.544,5.51,3.444c0.142,0.033,0.179,0.19,0.075,0.315
			c-1.476,2.181-2.634,4.583-3.312,7.175c-0.746,2.873-1.119,6.056-2.98,8.295c-0.104,0.125,0.004,0.298,0.146,0.33
			c1.6,0.151,3.231,0.162,4.769-0.369c0.559-0.168,1.08-0.49,1.693-0.57c1.015-0.208,1.968,0.164,2.868,0.447
			c0.97,0.302,1.993,0.689,2.963,0.992c1.376,0.47,2.807,1.027,3.839,2.013c0.125,0.104,0.353,0.081,0.386-0.06
			c1.412-4.127,0.884-8.858,2.577-12.922c0.219-0.617,0.578-1.201,0.993-1.699c0.636-0.817,1.559-1.271,2.429-1.81
			c2.592-1.548,5.054-3.499,7.126-5.689c0.326-0.444,0.707-0.801,0.895-1.278c0.031-0.141-0.074-0.314-0.25-0.206
			c-0.611,0.079-1.262,0.001-1.881-0.218c-0.211-0.049-0.318-0.223-0.27-0.435c0.111-0.791,0.941-1.489,1.477-2.181
			c0.756-1.012,1.016-2.438,0.543-3.589c-0.109-0.174-0.146-0.331-0.287-0.364C73.948,2.262,73.79,2.3,73.702,2.354
			c-1.746,0.483-3.113,1.873-4.843,2.285c-1.646,0.358-3.53-0.157-4.867,0.793c-0.277,0.232-0.482,0.481-0.799,0.556
			c-0.489,0.183-1.036-0.02-1.513-0.205c-2.895-0.974-6.27-0.204-8.467,1.883C52.832,8.023,52.436,8.45,52,8.72
			c-0.435,0.271-0.978,0.366-1.52,0.462c-1.401,0.268-2.87,0.519-4.271,0.785c-0.456,0.042-0.928,0.154-1.347,0.354
			C44.706,10.359,44.728,10.587,44.781,10.673z M55.722,8.7c0.79-1.153,2.186-1.718,3.553-1.844
			c0.298-0.004,0.597-0.009,0.846,0.197c0.248,0.208,0.308,0.593,0.101,0.841c-0.086,0.054-0.19,0.178-0.276,0.232
			c-0.469,0.411-1.114,0.631-1.69,0.869c-0.559,0.166-1.135,0.403-1.746,0.483c-0.142-0.034-0.37-0.012-0.511-0.045
			c-0.211-0.049-0.318-0.223-0.355-0.381C55.671,8.912,55.704,8.771,55.722,8.7z"/>
		<path fill="#FF0033" d="M21.608,11.58c1.688,1.361,3.566,2.544,5.51,3.444c0.143,0.033,0.179,0.19,0.076,0.315
			c-1.477,2.181-2.635,4.584-3.314,7.177c-0.745,2.871-1.118,6.055-2.979,8.295c-0.104,0.123,0.004,0.297,0.145,0.33
			c1.601,0.15,3.232,0.161,4.77-0.371c0.559-0.166,1.08-0.489,1.693-0.569c1.015-0.208,1.968,0.164,2.866,0.446
			c0.972,0.303,1.994,0.69,2.964,0.992c1.376,0.471,2.808,1.028,3.84,2.014c0.125,0.104,0.353,0.08,0.386-0.061
			c1.412-4.127,0.884-8.857,2.577-12.921c0.219-0.616,0.578-1.202,0.993-1.698c0.636-0.817,1.559-1.271,2.429-1.811
			c2.592-1.548,5.055-3.499,7.127-5.689c0.326-0.444,0.707-0.801,0.894-1.278c0.032-0.141-0.074-0.314-0.25-0.206
			c-0.611,0.079-1.262,0.001-1.881-0.218c-0.212-0.049-0.318-0.223-0.27-0.435c0.111-0.791,0.941-1.489,1.477-2.181
			c0.757-1.012,1.017-2.438,0.543-3.589c-0.108-0.174-0.146-0.331-0.287-0.364c-0.141-0.033-0.298,0.005-0.386,0.059
			c-1.748,0.483-3.114,1.872-4.845,2.285c-1.646,0.358-3.53-0.157-4.867,0.793c-0.277,0.232-0.483,0.481-0.799,0.557
			c-0.489,0.183-1.036-0.02-1.514-0.205c-2.894-0.974-6.269-0.204-8.466,1.883c-0.381,0.357-0.777,0.784-1.213,1.054
			c-0.435,0.27-0.978,0.366-1.52,0.462c-1.4,0.267-2.871,0.518-4.271,0.784c-0.456,0.042-0.928,0.154-1.347,0.354
			C21.533,11.265,21.555,11.493,21.608,11.58z M32.547,9.606c0.79-1.153,2.187-1.718,3.554-1.844
			c0.298-0.004,0.597-0.009,0.846,0.197c0.248,0.208,0.307,0.593,0.1,0.841c-0.086,0.054-0.189,0.178-0.275,0.232
			c-0.469,0.411-1.114,0.631-1.69,0.869c-0.559,0.166-1.135,0.403-1.747,0.483c-0.141-0.034-0.37-0.012-0.51-0.045
			c-0.211-0.049-0.319-0.223-0.355-0.381C32.497,9.818,32.531,9.677,32.547,9.606z"/>
	</g>
	<g>
		<path fill="#FF0033" d="M91.907,10.39c1.689,1.361,3.566,2.544,5.51,3.444c0.143,0.033,0.18,0.19,0.076,0.315
			c-1.477,2.181-2.635,4.583-3.312,7.175c-0.746,2.873-1.119,6.055-2.98,8.295c-0.104,0.125,0.004,0.297,0.145,0.33
			c1.6,0.152,3.232,0.162,4.77-0.369c0.559-0.168,1.08-0.49,1.693-0.57c1.016-0.209,1.969,0.164,2.867,0.447
			c0.971,0.301,1.994,0.689,2.965,0.992c1.375,0.469,2.807,1.027,3.838,2.012c0.125,0.104,0.354,0.082,0.387-0.059
			c1.412-4.127,0.883-8.859,2.576-12.922c0.219-0.616,0.578-1.202,0.994-1.698c0.635-0.817,1.559-1.271,2.428-1.81
			c2.592-1.548,5.055-3.499,7.127-5.689c0.326-0.444,0.707-0.801,0.895-1.278c0.031-0.141-0.074-0.314-0.25-0.206
			c-0.611,0.079-1.262,0.001-1.881-0.218c-0.211-0.049-0.318-0.223-0.27-0.435c0.111-0.791,0.941-1.489,1.477-2.181
			c0.758-1.012,1.016-2.438,0.543-3.589c-0.109-0.174-0.146-0.331-0.287-0.364c-0.141-0.033-0.299,0.005-0.387,0.059
			c-1.746,0.483-3.111,1.873-4.844,2.285c-1.645,0.358-3.529-0.157-4.867,0.793c-0.275,0.232-0.482,0.481-0.799,0.556
			c-0.488,0.183-1.035-0.02-1.512-0.205c-2.895-0.974-6.27-0.204-8.467,1.883c-0.381,0.357-0.777,0.784-1.213,1.054
			s-0.979,0.366-1.52,0.462c-1.4,0.267-2.871,0.518-4.271,0.784c-0.457,0.042-0.93,0.154-1.348,0.354
			C91.833,10.075,91.854,10.303,91.907,10.39z M102.848,8.416c0.789-1.153,2.186-1.718,3.553-1.844
			c0.297-0.004,0.596-0.009,0.846,0.197c0.248,0.208,0.307,0.593,0.1,0.841c-0.086,0.054-0.189,0.178-0.275,0.232
			c-0.469,0.411-1.115,0.631-1.691,0.869c-0.559,0.166-1.135,0.403-1.746,0.483c-0.141-0.034-0.369-0.012-0.51-0.045
			c-0.211-0.049-0.318-0.223-0.355-0.381C102.798,8.628,102.831,8.487,102.848,8.416z"/>
		<path fill="#FF0033" d="M68.733,11.296c1.688,1.361,3.567,2.544,5.51,3.444c0.143,0.033,0.178,0.19,0.076,0.315
			c-1.477,2.181-2.635,4.583-3.315,7.175c-0.745,2.873-1.118,6.055-2.979,8.295c-0.104,0.125,0.004,0.297,0.145,0.33
			c1.601,0.151,3.232,0.162,4.771-0.369c0.559-0.168,1.08-0.49,1.693-0.57c1.014-0.209,1.967,0.164,2.865,0.447
			c0.973,0.301,1.996,0.688,2.965,0.992c1.377,0.469,2.809,1.026,3.84,2.012c0.125,0.104,0.354,0.082,0.387-0.059
			c1.412-4.127,0.883-8.859,2.576-12.923c0.219-0.616,0.578-1.202,0.994-1.698c0.635-0.817,1.559-1.271,2.428-1.811
			c2.592-1.548,5.055-3.499,7.127-5.689c0.326-0.444,0.707-0.801,0.895-1.278c0.031-0.141-0.074-0.314-0.25-0.206
			c-0.611,0.079-1.262,0.001-1.881-0.218c-0.211-0.049-0.318-0.223-0.27-0.435c0.111-0.791,0.941-1.489,1.477-2.181
			c0.756-1.012,1.016-2.438,0.543-3.589c-0.109-0.174-0.146-0.331-0.287-0.364s-0.299,0.005-0.387,0.059
			c-1.746,0.483-3.113,1.873-4.844,2.285c-1.645,0.358-3.529-0.157-4.867,0.793c-0.277,0.232-0.482,0.481-0.799,0.556
			c-0.488,0.183-1.035-0.02-1.512-0.205c-2.895-0.974-6.27-0.204-8.469,1.883c-0.381,0.357-0.777,0.784-1.213,1.054
			c-0.434,0.27-0.977,0.366-1.52,0.462c-1.4,0.267-2.871,0.518-4.271,0.784c-0.456,0.042-0.929,0.154-1.347,0.354
			C68.658,10.981,68.68,11.209,68.733,11.296z M79.673,9.322c0.791-1.153,2.188-1.718,3.555-1.844
			c0.297-0.004,0.596-0.009,0.846,0.197c0.248,0.208,0.307,0.593,0.1,0.841c-0.086,0.054-0.189,0.178-0.275,0.232
			c-0.469,0.411-1.115,0.631-1.691,0.869c-0.559,0.166-1.135,0.403-1.746,0.483c-0.141-0.034-0.371-0.012-0.51-0.045
			c-0.211-0.049-0.32-0.223-0.355-0.381C79.624,9.534,79.657,9.393,79.673,9.322z"/>
	</g>
</g>
</svg>
