<?xml version="1.0" encoding="utf-8"?>
<!-- Generator: Adobe Illustrator 16.0.0, SVG Export Plug-In . SVG Version: 6.00 Build 0)  -->
<!DOCTYPE svg PUBLIC "-//W3C//DTD SVG 1.1//EN" "http://www.w3.org/Graphics/SVG/1.1/DTD/svg11.dtd">
<svg version="1.1" id="Layer_1" xmlns="http://www.w3.org/2000/svg" xmlns:xlink="http://www.w3.org/1999/xlink" x="0px" y="0px"
	 width="36px" height="36px" viewBox="0 0 36 36" enable-background="new 0 0 36 36" xml:space="preserve">
<path fill="#FFFFFF" d="M32.682,5.064c-0.289-0.24-0.721-0.288-1.057-0.144L17.976,9.534L4.328,4.92
	C3.991,4.776,3.559,4.872,3.27,5.064c-0.288,0.24-0.48,0.577-0.48,0.961v19.271c0,0.48,0.337,0.961,0.817,1.105l14.032,4.709l0,0
	c0.049,0,0.097,0,0.145,0.049h0.048c0.048,0,0.145,0,0.192,0s0.145,0,0.192,0h0.048c0.048,0,0.097,0,0.145-0.049l0,0l13.984-4.709
	c0.482-0.145,0.818-0.625,0.818-1.105V5.978C33.211,5.641,33.018,5.257,32.682,5.064z M5.144,7.611l11.678,3.941v16.821
	L5.144,24.432V7.611z M30.855,24.432l-11.678,3.941V11.552l11.678-3.941V24.432z"/>
</svg>
