<?xml version="1.0" encoding="utf-8"?>
<!-- Generator: Adobe Illustrator 16.0.0, SVG Export Plug-In . SVG Version: 6.00 Build 0)  -->
<!DOCTYPE svg PUBLIC "-//W3C//DTD SVG 1.1//EN" "http://www.w3.org/Graphics/SVG/1.1/DTD/svg11.dtd">
<svg version="1.1" id="Layer_1" xmlns="http://www.w3.org/2000/svg" xmlns:xlink="http://www.w3.org/1999/xlink" x="0px" y="0px"
	 width="36px" height="36px" viewBox="0 0 36 36" enable-background="new 0 0 36 36" xml:space="preserve">
<path fill="#323232" d="M3.869,10.758c1.688,1.361,3.566,2.544,5.51,3.444c0.141,0.033,0.178,0.19,0.075,0.315
	c-1.476,2.181-2.634,4.584-3.313,7.176c-0.746,2.872-1.119,6.055-2.98,8.295c-0.104,0.124,0.004,0.297,0.145,0.33
	c1.6,0.151,3.232,0.162,4.769-0.37c0.559-0.167,1.08-0.49,1.693-0.57c1.015-0.208,1.968,0.164,2.868,0.447
	c0.97,0.302,1.994,0.69,2.963,0.992c1.376,0.47,2.807,1.028,3.839,2.013c0.125,0.104,0.353,0.081,0.386-0.06
	c1.412-4.127,0.884-8.858,2.577-12.921c0.219-0.617,0.578-1.202,0.993-1.699c0.636-0.817,1.559-1.271,2.429-1.81
	c2.592-1.548,5.055-3.499,7.127-5.689c0.326-0.444,0.707-0.801,0.894-1.278c0.032-0.141-0.075-0.314-0.25-0.206
	c-0.612,0.079-1.262,0.001-1.881-0.218c-0.211-0.049-0.318-0.223-0.27-0.435c0.112-0.791,0.942-1.489,1.477-2.181
	c0.757-1.012,1.016-2.438,0.543-3.589c-0.109-0.174-0.146-0.331-0.287-0.364c-0.141-0.033-0.298,0.005-0.386,0.059
	c-1.747,0.483-3.113,1.873-4.844,2.285c-1.645,0.358-3.53-0.157-4.867,0.793c-0.277,0.232-0.483,0.481-0.799,0.556
	c-0.489,0.183-1.036-0.02-1.513-0.205c-2.894-0.974-6.269-0.204-8.466,1.883c-0.381,0.357-0.778,0.784-1.213,1.054
	s-0.978,0.366-1.52,0.462c-1.401,0.267-2.871,0.518-4.271,0.784c-0.456,0.042-0.928,0.154-1.347,0.354
	C3.794,10.444,3.815,10.672,3.869,10.758z M14.809,8.785c0.79-1.153,2.186-1.718,3.553-1.844c0.298-0.004,0.597-0.009,0.846,0.197
	c0.248,0.208,0.307,0.593,0.1,0.841c-0.086,0.054-0.19,0.178-0.276,0.232c-0.469,0.411-1.114,0.631-1.69,0.869
	c-0.559,0.166-1.135,0.403-1.747,0.483c-0.141-0.034-0.37-0.012-0.51-0.045c-0.211-0.049-0.319-0.223-0.356-0.381
	C14.759,8.997,14.792,8.855,14.809,8.785z"/>
</svg>
