<?xml version="1.0" encoding="utf-8"?>
<!-- Generator: Adobe Illustrator 16.0.0, SVG Export Plug-In . SVG Version: 6.00 Build 0)  -->
<!DOCTYPE svg PUBLIC "-//W3C//DTD SVG 1.1//EN" "http://www.w3.org/Graphics/SVG/1.1/DTD/svg11.dtd">
<svg version="1.1" id="Layer_1" xmlns="http://www.w3.org/2000/svg" xmlns:xlink="http://www.w3.org/1999/xlink" x="0px" y="0px"
	 width="36px" height="36px" viewBox="0 0 36 36" enable-background="new 0 0 36 36" xml:space="preserve">
<g>
	<path fill="#FFFFFF" d="M18.48,13.129c-0.298-0.298-0.783-0.298-1.08,0l-6.884,6.883c-0.298,0.299-0.298,0.783,0,1.082
		c0.298,0.299,0.782,0.299,1.081,0l6.343-6.343l6.339,6.343c0.152,0.149,0.35,0.223,0.545,0.223c0.193,0,0.39-0.072,0.542-0.223
		c0.295-0.299,0.295-0.783,0-1.082L18.48,13.129z"/>
	<path fill="#FFFFFF" d="M34,18.259c0-8.707-7.354-16.061-16.06-16.061c-8.707,0-16.062,7.354-16.062,16.061
		c0,8.706,7.354,16.06,16.062,16.06C26.646,34.318,34,26.965,34,18.259z M17.94,32.788c-7.877,0-14.53-6.652-14.53-14.529
		S10.063,3.728,17.94,3.728c7.876,0,14.531,6.654,14.531,14.531S25.816,32.788,17.94,32.788z"/>
</g>
</svg>
